<?xml version="1.0" standalone="no"?>
<!DOCTYPE svg PUBLIC "-//W3C//DTD SVG 1.1//EN" "http://www.w3.org/Graphics/SVG/1.1/DTD/svg11.dtd">
<svg xmlns="http://www.w3.org/2000/svg" version="1.1" viewBox="0 0 2048 1194" width="2048" height="1194">
<path transform="translate(1348,387)" d="m0 0h37l12 1 1 1 1 113 112 1 1-115 17-1h27l18 1 1 2v272l-4 2h-54l-5-1-1-116-113-1v117l-3 1h-53l-7-2-1-7v-263l1-4z" fill="#C21628"/>
<path transform="translate(1189,385)" d="m0 0h41l17 3 16 5 14 6 14 8 10 9 4 3-1 5-12 16-8 11-8 5h-7l-16-9-12-6-10-3-13-1h-13l-11 1-16 5-12 7-10 8-11 15-7 16-4 17-1 10v19l2 17 5 16 4 10 12 16 9 8 16 8 17 4h22l18-4 13-7 10-7 6-3 7 1 8 7 13 14 6 7-1 4-9 11-10 8-16 9-14 6-16 4-24 3h-16l-27-3-17-5-21-10-14-10-14-12-10-13-9-16-7-16-4-16-3-15-2-20v-11l2-21 3-15 7-20 10-18 9-12 11-12 13-11 18-11 18-8 17-5z" fill="#C21628"/>
<path transform="translate(887,387)" d="m0 0h156l5 1v45l-1 1-14 1-97 1-1 6v65l92 1 2 1v45l-4 1-90 1-1 107-5 1h-51l-7-1-1-18v-253l1-4z" fill="#C11628"/>
<path transform="translate(526,351)" d="m0 0h301l1 1v21l-1 1-276 1-1 70 133 1 2 3v19l-2 2-132 2-1 114-1 19-2 1h-18l-4-2-1-107 1-145z" fill="#C21729"/>
<path transform="translate(574,399)" d="m0 0h252l1 1v299h-22l-1-1-1-87v-189h-70v105l-1 29-1 1h-22l-1-1-1-128-1-5-132-1-1-1v-15z" fill="#4B4A4B"/>
<path transform="translate(477,352)" d="m0 0h24l1 276 71 1v-133l1-1h22l1 1v133l135 1v21l-1 1-188 1h-63l-3-1z" fill="#4B4A4B"/>
<path transform="translate(756,447)" d="m0 0h24v251l-1 1h-301l-1-1v-22h278v-69l-1-1-132-1-1-7v-16l1-1h133v-113z" fill="#4B4A4B"/>
<path transform="translate(1600,783)" d="m0 0h58l10 3 5 5 1 2v13l-2 6 5 4 2 4-1 8-6 7-16 4h-55l-1-1-1-7v-42zm33 15-9 2 1 5 23-1v-5l-2-1zm-9 19v5l1 1h23l3-3-2-3z" fill="#C21628"/>
<path transform="translate(1315,783)" d="m0 0h52l12 3 6 4 4 5 1 3v9l-4 8-2 2 1 5 2 2 1 6v8l-1 1h-19l-5-8-3-5-8-2h-7l-4 1-3 12-3 2h-19l-2-2v-53zm29 15-4 2-1 7 1 1h17l5-2 2-4-1-2-7-2z" fill="#C21628"/>
<path transform="translate(1067,783)" d="m0 0h54l12 4 7 6 2 6v7l-4 9-2 2 1 4 3 7 1 10-4 1h-16l-8-11v-2l-6-2h-15l-2 13-3 2h-19l-2-4v-49zm28 15-3 2v6l2 2h16l5-3 1-5-5-2z" fill="#C21628"/>
<path transform="translate(700,782)" d="m0 0h24l18 1 11 2 8 5 4 5 1 3v11l-6 9 2 5 3 9v6l-2 1h-17l-4-4-6-9-5-2h-8l-6 1-3 13-4 1h-16l-3-3-1-29 1-22 2-2zm21 16-5 2v7l1 1h17l5-2 1-6-7-2z" fill="#C21628"/>
<path transform="translate(1427,783)" d="m0 0h22l2 6 1 15h24l2-21h23l1 1v54l-4 1h-19l-1-1-2-19-8-1h-15l-3 20-3 1h-20l-1-1v-54z" fill="#C21628"/>
<path transform="translate(1156,783)" d="m0 0h61l1 1v12l-2 2-32 1-4 1v3l31 1 1 1v11l-1 1-32 1v5l41 1 2 4v10l-2 1h-64l-2-5v-46z" fill="#C21628"/>
<path transform="translate(1235,783)" d="m0 0h62l1 1v12l-4 2-34 1-1 5h31l1 1v12l-30 1v5l36 1 3 2 1 5v7l-1 1h-65l-1-2v-52z" fill="#C21628"/>
<path transform="translate(781,783)" d="m0 0h61l1 1-1 13-2 1-34 1-1 4 31 1v13l-32 1v4l5 1 35 1 1 1v14h-65l-1-1v-52z" fill="#C21628"/>
<path transform="translate(911,781)" d="m0 0h17l12 3 9 6 6 7 1 5-4 2-12 1-9-1-10-5h-7l-6 4-2 3v9l4 6 4 2h10l8-5h22l2 1-3 9-9 8-8 3-6 1h-24l-12-4-6-4-5-6-3-7-1-10 4-13 7-8 8-4z" fill="#C21628"/>
<path transform="translate(1516,783)" d="m0 0h23l1 26 1 9 4 4 9 1 4-2 2-5 1-6 1-24 1-3h22l2 5-1 31-3 8-6 7-11 5-6 1h-21l-12-4-6-5-5-10-1-6v-30z" fill="#C21628"/>
<path transform="translate(1006,782)" d="m0 0 13 1 5 4 21 33 8 13 1 5-1 1h-20l-5-5-1-3h-32l-8 8-2 1-17-1-3-1 2-6 11-18 10-15 9-14 3-2zm2 23-4 6v3l4 1 7-1-1-5-2-4z" fill="#C21628"/>
<path transform="translate(611,783)" d="m0 0h18l1 1 2 33 3 5 3 1h8l5-5 1-3 2-31 3-1h19l1 1v35l-3 9-4 5-12 6-5 1h-21l-10-3-8-5-4-5-3-9-1-12v-18l1-4z" fill="#C21628"/>
<path transform="translate(451,783)" d="m0 0h21l1 1 1 29 3 8 4 2h8l5-2 2-10v-21l1-6 2-1h20l2 2v23l-1 12-4 9-8 7-7 3-6 1h-21l-10-3-6-4-5-6-3-8v-35z" fill="#C21628"/>
<path transform="translate(381,782)" d="m0 0h43l15 1 1 3v10l-5 2-18 1h-16v5l18-1v-3h2v4h11l1 1v10l-1 1-32 1v16l-2 6h-20l-2-3v-51l1-2z" fill="#C21628"/>
<path transform="translate(512,884)" d="m0 0h44l2 2 2 7v3h-35l1 20 25 1 4 12h-16l-14-1 1 22 31 1 3 8v3h-37l-10-4-1-1z" fill="#0B0809"/>
<path transform="translate(557,782)" d="m0 0h35l4 2 1 10-2 3-7 1h-12l-1 40-2 1h-19l-2-2-1-7-1-31-19-2-1-1v-12l1-1z" fill="#C21628"/>
<path transform="translate(605,882)" d="m0 0 7 1 3 8-1 72-5-2-10-5-5 6h-9l-10-5-6-7-3-8v-17l5-10 6-5 8-3h8l10 3v-27zm-14 36-8 3-4 5-2 9 1 10 4 6 5 2 7-1 8-6 1-3v-19l-3-5z" fill="#0C090A"/>
<path transform="translate(1087,884)" d="m0 0h9l12 3 5 3 3 9-1 4-15-6h-15l-8 4-6 8-3 12v11l4 9 5 5 6 3h17l8-4 3-2 4 1 2 6v6l-8 4-8 2h-14l-10-3-9-6-7-8-5-11-1-3v-18l4-11 6-8 8-6 8-3z" fill="#0D0A0B"/>
<path transform="translate(972,907)" d="m0 0h9l7 3 6 7 3 10v36l-5-2-10-6-2 4-4 4-10-1-7-4-5-7-1-8 3-6 6-5 8-3 12-2 2-1-1-6-7-1-9 3-4-1-6-5 1-4 8-4zm4 32-10 4-1 1 1 7 7 2 11-5 1-7-1-2z" fill="#0D0A0B"/>
<path transform="translate(1415,907)" d="m0 0h9l7 3 5 5 3 6 1 5v37l-4-3h-8l-9 3-9-1-6-3-6-7-1-3v-8l3-5 7-5 21-5-1-5-3-2h-7l-6 3h-5l-2-4-4-1 1-4 9-5zm9 32-13 3-2 2v6l2 2h8l8-4 1-1v-7zm2 16-3 3v2l5-2v-3z" fill="#0D0A0B"/>
<path transform="translate(1140,907)" d="m0 0h13l8 3 7 6 5 10 1 5v8l-2 9-2 5-5 5-8 3-1 1h-11l-9-3-9-8-5-10v-15l4-9 5-6zm7 10-3 1v2l-5 2-4 8-1 5v7l3 6 5 4h10l6-4 3-4 2-9-1-10-3-5-7-3z" fill="#0F0C0D"/>
<path transform="translate(860,907)" d="m0 0h10l8 3 7 6 5 9 1 4v16l-4 10-5 4-11 3-13-1-6-3-6-5-5-9-1-4v-15l4-9 7-6zm2 11-6 4-4 6-1 4v10l3 7 5 3h11l6-4 3-5 1-15-3-7-5-3z" fill="#0F0C0D"/>
<path transform="translate(1284,907)" d="m0 0h6l4 6 1 3 1 31 3 4h9l7-4 1-1 1-37 1-2h6l3 3 3 5v48l-4-1-3-2-7 1-1 1h-16l-10-6-5-8-1-3v-37zm30 48-3 3v2l4-1 1-4z" fill="#100D0E"/>
<path transform="translate(1451,907)" d="m0 0h6l4 4 5-2 6-2h10l8 4 6 10 1 4v37l-2 1-9-5-1-1-1-35-1-2-9-1-7-1-3 8-2 37-5-2-6-4z" fill="#0F0D0E"/>
<path transform="translate(748,907)" d="m0 0 11 1 6 4 4 6 2 7 1 38-4-2-8-3v-4l-9 5-3 1v2l-8-1-5-3-6-7v-11l3-5 10-5 16-3 2-1-2-6-5-2h-8l-2 4-3 1-8-6 1-5 8-4zm-7 11m8 20-9 3-1 1v6l5 5 9-2 7-5v-6l-1-1z" fill="#0D0B0C"/>
<path transform="translate(626,907)" d="m0 0h7l3 7v2l3 1-1 12v16l1 6h11l6-3h2l1-4v-35l2-2h7l2 3 2 8v45h-3v-2l-8-2-5-4-2 4-3 3h-9l-8-4-7-8-2-5v-37z" fill="#110E0F"/>
<path transform="translate(1183,907)" d="m0 0h6l3 5 10-5h12l6 3 6 7 2 4 1 7v35l-4-1v-2l-7-2-1-1v-26l-1-11-9-1-7 4-2 1 2-4 3-3h2v-2l-7 3-3 5v29l1 11h-5l-1-3-7-2z" fill="#0B090A"/>
<path transform="translate(901,907)" d="m0 0h5l3 4 5-1 8-3h9l7 3 6 9 2 6v38l-5-2-6-4-1-32-2-5-8-2-7 5h-2v-2l5-3h2v-2l-6 2-3 4-1 38v3l-6-2-5-4-1-2v-47z" fill="#0C0A0B"/>
<path transform="translate(1250,907)" d="m0 0h12l7 3 6 9v2l-22-3-2 2 1 5 5 3 10 4 5 5 3 5 1 11-6 7-3 2-6 1-14-2-9-6-1-1v-5l2-1 10 3h10l4-3v-5l-6-3-10-4-7-6-3-5v-7l4-6 6-4zm20 48 1 2 1-2zm-5 3-2 2h4l2-2z" fill="#0F0C0D"/>
<path transform="translate(1370,888)" d="m0 0 7 2 2 7v10h12l3 8v3h-14v33h11l2 10-2 1h-10l-8-4-5-6-1-5-1-29-4-4-3-2 1-4 7-2 2-17z" fill="#0C090A"/>
<path transform="translate(1515,888)" d="m0 0 5 1 3 9v9h12l1 1v8l3 1-2 1-13-1-1 2v28l1 4h6l4-1 1 1v8l3 1-1 2h-14l-6-4-5-6-1-4-1-27-3-6-5-5 3-3h6l1-12 2-6z" fill="#0C090A"/>
<path transform="translate(790,888)" d="m0 0 4 1 3 9v9h12l4 9v2l-17-1 1 26 1 8h6l4-1 2 2v9l-8 1-9-3-5-5-2-7-1-27-7-8-1-4 9-1 2-17z" fill="#0F0C0D"/>
<path transform="translate(699,907)" d="m0 0h11l8 3 3 3 2 8-10-2-11-2-5 2-3 5-1 2v18l4 6 5 2h6l11-5 2 1v5l-6 7-2 1h-13l-8-3-6-5-6-12v-15l3-8 5-6 7-4z" fill="#110F10"/>
<path transform="translate(1341,882)" d="m0 0 8 1 3 5 1 2v73l-4-1-9-5v-74z" fill="#070405"/>
<path transform="translate(1008,883)" d="m0 0h9l2 7v73l-5-2-6-3-1-2v-27z" fill="#070405"/>
<path transform="translate(826,906)" d="m0 0 2 1 4 10-1 45-3 1-9-6v-49z" fill="#131011"/>
<path transform="translate(1469,912)" d="m0 0h8l6 3 3 6 1 11v18l-1 7h-1l-1-35-1-2-9-1-7-1-3 8-2 37-5-2 1-30 1-10 6-7z" fill="#4D4C4D"/>
<path transform="translate(1346,883)" d="m0 0 4 1 3 6v73l-4-1-3-3h3l-1-36v-39z" fill="#4C4B4C"/>
<path transform="translate(605,882)" d="m0 0 7 1 3 8-1 72-5-2-10-5-5 6h-9l-10-5-4-4 1-2 7 6h11l14-6 3 6 4 2 1-7v-33l-1-11v-23l-6-1v28l-5-1 3-1v-27z" fill="#4B4A4B"/>
<path transform="translate(1326,910)" d="m0 0 4 5v48l-4-1-3-2-7 1-1 1h-16l-7-4 4-1h10l10-6h3l2 6 4 1zm-12 45-3 3v2l4-1 1-4z" fill="#515051"/>
<path transform="translate(1088,891)" d="m0 0h7l13 4 5 1 2-2 1 9-16-6h-15l-8 4-6 8-3 12v11l2 8-3-3-3-8v-15l3-9 8-9 8-4z" fill="#4B4A4B"/>
<path transform="translate(551,921)" d="m0 0 2 3 2 5h-16l-14-1 1 22 31 1v1h-35l-1-1v-27l1-1 28-1z" fill="#4D4C4D"/>
<path transform="translate(1434,914)" d="m0 0 4 4 2 8v37l-4-3h-8l-9 3-9-1-6-3-2-3 9 2 11-4 8-4 3 7h2l1-2v-33zm-8 41-3 3v2l5-2v-3z" fill="#4B4A4B"/>
<path transform="translate(920,912)" d="m0 0 10 1 4 4 2 5v35h-1l-1-32-2-5-8-2-7 5h-2v-2l5-3h2v-2l-6 2-3 4-1 38v3l-6-2-1-2h3v-34l3-8h2v-2z" fill="#4D4C4D"/>
<path transform="translate(661,907)" d="m0 0h7l2 3 2 8v45h-3v-2l-8-2-5-4-2 4-3 3h-9l-8-4-1-2 10 2 8-3 8-4 6 6 3 1v-44l-1-5-6-1z" fill="#4C4B4C"/>
<path transform="translate(992,915)" d="m0 0 3 4 2 8v36l-5-2-10-6-2 4-4 4-10-1-7-4-2-4 4 3h11l12-6 4 1 2 5h3v-37z" fill="#535353"/>
<path transform="translate(557,886)" d="m0 0h1l2 7v3h-35l1 20h6v1h-11v-25l1-1h35z" fill="#4D4C4D"/>
<path transform="translate(1202,912)" d="m0 0h7l6 3 1 5-9-1-7 4-2 1 2-4 3-3h2v-2l-7 3-3 5v29l1 11h-5l-1-3-2-1 2-1 1-37 9-8z" fill="#4D4C4D"/>
<path transform="translate(1391,909)" d="m0 0h1l2 6v3h-14v33h11l-4 2h-9l-2-2-1-4v-34l2-1 14-1z" fill="#4F4E4F"/>
<path transform="translate(701,912)" d="m0 0 15 1 4 2 1-2 2 8-10-2-11-2-5 2-3 5-1 2-1 18-3-3-1-3v-10l3-10 4-4z" fill="#4B4A4B"/>
<path transform="translate(1144,912)" d="m0 0 10 1 5 4v3l-7-2h-8v2l-5 3-3 7-1 5v10l-4-4-1-4 1-13 5-8z" fill="#4D4C4D"/>
<path transform="translate(890,929)" d="m0 0h1v16l-4 10-5 4-11 3-13-1-6-3-1-2 4 1h14l9-4 7-8 4-10z" fill="#4E4D4E"/>
<path transform="translate(584,913)" d="m0 0h13l5 3 2 5v23l-2 2v-22l-2-4-9-1-8 3-3 4-2 9v10l-2-3-1-6v-11l4-8z" fill="#4E4D4E"/>
<path transform="translate(1115,946)" d="m0 0 2 4v6l-8 4-8 2h-14l-10-3-5-3 2-1 9 2h14l12-5 5-4z" fill="#4C4B4C"/>
<path transform="translate(1420,933)" d="m0 0h8l2 3v8l-2 3-1-7-13 2-4 2v6l1 1 7 1v1h-9l-5-6 1-7 5-4z" fill="#4B4A4B"/>
<path transform="translate(1173,931)" d="m0 0h1v8l-2 9-2 5-5 5-8 3-1 1h-11l-7-2 4-2 10-1 10-5 6-9 4-8z" fill="#504F50"/>
<path transform="translate(1535,908)" d="m0 0h1v8l3 1-2 1-13-1-1 2v28l1 4h6l4-1 1 2-4 1h-8l-3-3-1-3v-31l1-3 11-2h4z" fill="#4B4A4B"/>
<path transform="translate(861,912)" d="m0 0 10 1 4 2v2h2l1 5-6-3h-10l-6 4-3 5-2 14h-1l-1-6v-11l3-8 6-4z" fill="#4D4C4D"/>
<path transform="translate(1272,938)" d="m0 0 2 1 2 10-1 6-8 7-6 1-14-2-8-5 2-1 7 3h7l10-4 5-6 2-7zm-2 17 1 2 1-2zm-5 3-2 2h4l2-2z" fill="#545354"/>
<path transform="translate(976,933)" d="m0 0h9l2 3v9l-2 1-1-7-12 2-6 3v7l7 2-3 1-5-2-3-4-1-6 5-6z" fill="#4B4A4B"/>
<path transform="translate(827,907)" d="m0 0 2 3 3 7-1 45-3 1-4-4 2-1 1-6z" fill="#4B4A4B"/>
<path transform="translate(821,883)" d="m0 0h6l3 3 3 11-2 3-6-1-5-4-2-3v-6z" fill="#0C090A"/>
<path transform="translate(557,953)" d="m0 0 2 3 1 6h-37l-8-3v-1h42z" fill="#4B4A4B"/>
<path transform="translate(1250,912)" d="m0 0 13 1 10 3 2 5-22-3-2 2 1 5 1 2-4-1-4-4 2-8z" fill="#4C4B4C"/>
<path transform="translate(1291,909)" d="m0 0 3 4 1 3 1 31 3 4 9 1-3 2-8-1-5-5-1-3z" fill="#4C4B4C"/>
<path transform="translate(1014,883)" d="m0 0h3l2 7v73l-5-2-1-2 3-1v-74z" fill="#4B4A4B"/>
<path transform="translate(967,913)" d="m0 0h13l6 5 1 2v7l-5 1 2-2-1-6-7-1-9 3-4-1-5-5z" fill="#4F4E4F"/>
<path transform="translate(1415,912)" d="m0 0 8 1 5 3 2 5v6l-5 1 3-2-1-5-3-2h-7l-6 3h-5l-2-4-2-1 9-4z" fill="#4E4D4E"/>
<path transform="translate(633,908)" d="m0 0 2 2 1 6 3 1-1 12v16l1 6-4-2-2-7z" fill="#4D4C4D"/>
<path transform="translate(1341,882)" d="m0 0 3 1-1 11-1 62-2 1v-74z" fill="#4B4A4B"/>
<path transform="translate(1488,910)" d="m0 0 5 5 4 10v37l-2 1-5-4h3v-39l-5-8z" fill="#4B4A4B"/>
<path transform="translate(741,913)" d="m0 0h15l4 4-1 4-6-3h-8l-2 4-3 1-6-5 1-3z" fill="#4B4A4B"/>
<path transform="translate(992,915)" d="m0 0 3 4 2 8v36l-5-2-1-3 2-1v-37z" fill="#4B4A4B"/>
<path transform="translate(1008,883)" d="m0 0h5l-3 1v74h-2l-1-2v-27z" fill="#4B4A4B"/>
<path transform="translate(1316,951)" d="m0 0h3l3 8-7 3h-16l-7-4 4-1h10zm-2 4-3 3v2l4-1 1-4z" fill="#535253"/>
<path transform="translate(758,932)" d="m0 0 3 3v11h-1l-1-6-10-1-9 3v8l-2-1-1-8 5-5 8-3z" fill="#4D4C4D"/>
<path transform="translate(571,951)" d="m0 0 8 6h11l14-6 4 7-1 2-5-3h-4l-4 5h-9l-10-5-4-4z" fill="#535253"/>
<path transform="translate(1227,921)" d="m0 0h1l1 7v35l-4-1v-2l-2-1 2-1 1-30z" fill="#515051"/>
<path transform="translate(809,911)" d="m0 0 2 1 2 6-17-1v18h-1v-22l1-1z" fill="#4C4B4C"/>
<path transform="translate(1427,951)" d="m0 0m-1 1m-2 1 4 2-4 3v3l-5 2-9-1-6-3-2-3 9 2 11-4z" fill="#565556"/>
<path transform="translate(944,921)" d="m0 0 2 4v38l-5-2-1-2 2-1 1-3z" fill="#4B4A4B"/>
<path transform="translate(1202,912)" d="m0 0h7l6 3 1 5-9-1-7 4-2 1 2-4 3-3h2v-2l-6 1z" fill="#4B4A4B"/>
<path transform="translate(715,954)" d="m0 0 4 1-4 5-2 1h-13l-8-3v-1l12 1z" fill="#4D4C4D"/>
<path transform="translate(1390,953)" d="m0 0 2 1 1 7-2 1h-10l-7-3v-1l13-2z" fill="#4F4E4F"/>
<path transform="translate(1534,955)" d="m0 0 1 4 3 1-1 2h-14l-5-3 4-1 11-2z" fill="#4B4A4B"/>
<path transform="translate(1376,890)" d="m0 0 2 3 1 4v10h12v1h-14l-2-3v-13z" fill="#4B4A4B"/>
<path transform="translate(1008,927)" d="m0 0h2v31h-2l-1-2v-27z" fill="#534D4F"/>
<path transform="translate(830,889)" d="m0 0 2 4 1 4-2 3-6-1-5-5 7-1 2-1z" fill="#504F50"/>
<path transform="translate(1506,913)" d="m0 0 5 1 1 2 1 36-2-4-1-27-3-6z" fill="#4B4A4B"/>
<path transform="translate(804,956)" d="m0 0h5l1 5-8 1-8-2v-1l9-2z" fill="#515051"/>
<path transform="translate(1244,933)" d="m0 0 11 3 8 3 2 3v5l-2-4-6-3-10-4z" fill="#4B4A4B"/>
<path transform="translate(1080,949)" d="m0 0h23l-4 3-3 1h-9l-7-3z" fill="#4B4A4B"/>
<path transform="translate(1316,951)" d="m0 0h3l3 8-8 3 1-4 1-3-3 1 2-4z" fill="#5D5D5D"/>
<path transform="translate(754,954)" d="m0 0 3 1-7 5h-2v2l-8-1 1-2 9-3z" fill="#4B4A4B"/>
<path transform="translate(770,925)" d="m0 0h1l1 38-4-2 1-3z" fill="#4B4A4B"/>
<path transform="translate(1365,913)" d="m0 0 3 1v33h-1l-1-29z" fill="#4B4A4B"/>
<path transform="translate(1520,891)" d="m0 0 2 4 1 3v9h-3z" fill="#4B4A4B"/>
<path transform="translate(603,951)" d="m0 0 2 1 3 6-1 2-5-3-3-3z" fill="#555455"/>
<path transform="translate(758,958)" d="m0 0 2 1-8 3-3-1z" fill="#4B4A4B"/>
<path transform="translate(702,918)" d="m0 0 2 1-7 5 2-4z" fill="#4B4A4B"/>
<path transform="translate(1469,919)" d="m0 0 3 1-6 3 1-3z" fill="#4B4A4B"/>
<path transform="translate(983,958)" d="m0 0h2l-1 3-4-1z" fill="#A4A3A4"/>
<path transform="translate(722,956)" d="m0 0v3l-2 2-3-1z" fill="#5C5B5C"/>
<path transform="translate(657,959)" d="m0 0 2 2-5 1z" fill="#777677"/>
<path transform="translate(745,941)" d="m0 0 2 1-5 1z" fill="#686768"/>
<path transform="translate(1196,925)" d="m0 0 1 2-2 2z" fill="#6E6D6E"/>
<path transform="translate(1253,919)" d="m0 0 3 1-4 1z" fill="#6E6D6E"/>
<path transform="translate(598,959)" d="m0 0 2 1-2 1z" fill="#C1C1C1"/>
<path transform="translate(715,961)" d="m0 0 2 1z" fill="#A4A3A4"/>
<path transform="translate(1170,954)" d="m0 0" fill="#FDFDFD"/>
<path transform="translate(747,940)" d="m0 0" fill="#4B4A4B"/>
<path transform="translate(1197,924)" d="m0 0" fill="#4B4A4B"/>
<path transform="translate(696,924)" d="m0 0" fill="#4B4A4B"/>
<path transform="translate(914,923)" d="m0 0" fill="#4B4A4B"/>
<path transform="translate(1011,809)" d="m0 0" fill="#C21628"/>
</svg>